<svg width="35" height="34" viewBox="0 0 35 34" fill="none" xmlns="http://www.w3.org/2000/svg">
<path fill-rule="evenodd" clip-rule="evenodd" d="M17.2584 8C12.1601 8 8.03076 12.1294 8.03076 17.2276C8.03076 21.3109 10.6722 24.7597 14.3402 25.9824C14.8015 26.0631 14.9746 25.7863 14.9746 25.5441C14.9746 25.3249 14.963 24.5982 14.963 23.8254C12.6446 24.2522 12.0448 23.2602 11.8602 22.7412C11.7564 22.4759 11.3066 21.6569 10.9144 21.4378C10.5914 21.2647 10.1301 20.838 10.9029 20.8264C11.6295 20.8149 12.1486 21.4954 12.3216 21.7723C13.1521 23.1679 14.4786 22.7758 15.0092 22.5335C15.0899 21.9337 15.3321 21.53 15.5974 21.2993C13.5443 21.0687 11.3989 20.2728 11.3989 16.7432C11.3989 15.7397 11.7564 14.9092 12.3447 14.2633C12.2524 14.0326 11.9294 13.0867 12.437 11.8179C12.437 11.8179 13.2098 11.5757 14.9746 12.7638C15.7128 12.5561 16.4971 12.4523 17.2815 12.4523C18.0658 12.4523 18.8502 12.5561 19.5884 12.7638C21.3532 11.5642 22.126 11.8179 22.126 11.8179C22.6335 13.0867 22.3105 14.0326 22.2183 14.2633C22.8065 14.9092 23.1641 15.7282 23.1641 16.7432C23.1641 20.2843 21.0071 21.0687 18.954 21.2993C19.2885 21.5877 19.5769 22.1414 19.5769 23.0065C19.5769 24.2407 19.5653 25.2326 19.5653 25.5441C19.5653 25.7863 19.7383 26.0746 20.1997 25.9824C22.0315 25.3639 23.6233 24.1866 24.751 22.6161C25.8787 21.0456 26.4855 19.1611 26.486 17.2276C26.486 12.1294 22.3567 8 17.2584 8Z" fill="white"/>
<rect x="0.530762" y="0.5" width="33.4553" height="33" stroke="white" stroke-opacity="0.3"/>
</svg>
