<svg width="35" height="34" viewBox="0 0 35 34" fill="none" xmlns="http://www.w3.org/2000/svg">
<path fill-rule="evenodd" clip-rule="evenodd" d="M12.3341 10.167C12.3341 11.3639 11.3639 12.3341 10.167 12.3341C8.97022 12.3341 8 11.3639 8 10.167C8 8.97022 8.97022 8 10.167 8C11.3639 8 12.3341 8.97022 12.3341 10.167ZM14.3803 25.9989V13.9762H17.9636V15.6203H18.0141C18.5123 14.6764 19.7305 13.6791 21.5479 13.6791C25.3333 13.6791 26.0306 16.168 26.0306 19.4067V25.9999H22.2957V20.1525C22.2957 18.7589 22.2719 16.9653 20.3535 16.9653C18.4083 16.9653 18.1132 18.4846 18.1132 20.0534V25.9989H14.3803ZM12.0359 13.9762H8.29707V25.9989H12.0359V13.9762Z" fill="white"/>
<rect x="0.5" y="0.5" width="33.0306" height="33" stroke="white" stroke-opacity="0.3"/>
</svg>
